<svg xmlns="http://www.w3.org/2000/svg" version="1.1" xmlns:xlink="http://www.w3.org/1999/xlink" xmlns:svgjs="http://svgjs.dev/svgjs" width="600" height="600" preserveAspectRatio="none" viewBox="0 0 600 600"><g mask="url(&quot;#SvgjsMask1859&quot;)" fill="none"><path d="M391.03 346.74 L449.12 374.09000000000003L383.08461294069764 397.40538705930237z" fill="rgba(214, 31, 67, 1)"></path><rect width="81.6" height="81.6" clip-path="url(&quot;#SvgjsClipPath1860&quot;)" x="125.59" y="-28.89" fill="url(&quot;#SvgjsPattern1861&quot;)" transform="rotate(285.33, 166.39, 11.91)"></rect><rect width="115.8" height="115.8" clip-path="url(&quot;#SvgjsClipPath1862&quot;)" x="85.97" y="527.14" fill="url(&quot;#SvgjsPattern1863&quot;)" transform="rotate(168.22, 143.87, 585.04)"></rect><path d="M528.95 399.11L539.78 405.95 535.48 418.01 546.31 424.85 542.01 436.92 552.84 443.75 548.55 455.82M521.39 401.72L532.22 408.56 527.92 420.62 538.75 427.46 534.45 439.53 545.28 446.37 540.98 458.43M513.83 404.33L524.66 411.17 520.36 423.24 531.19 430.08 526.89 442.14 537.72 448.98 533.42 461.04" stroke="rgba(214, 31, 67, 1)" stroke-width="1.88" stroke-dasharray="2, 2"></path><path d="M-2.27 267.72a5.6 5.6 0 1 0 10.19 4.64 5.6 5.6 0 1 0-10.19-4.64zM12.29 274.35a5.6 5.6 0 1 0 10.19 4.64 5.6 5.6 0 1 0-10.19-4.64zM26.85 280.98a5.6 5.6 0 1 0 10.2 4.65 5.6 5.6 0 1 0-10.2-4.65zM41.41 287.62a5.6 5.6 0 1 0 10.2 4.64 5.6 5.6 0 1 0-10.2-4.64z" fill="rgba(214, 31, 67, 1)"></path></g><defs><mask id="SvgjsMask1859"><rect width="600" height="600" fill="#ffffff"></rect></mask><pattern x="0" y="0" width="8.16" height="8.16" patternUnits="userSpaceOnUse" id="SvgjsPattern1861"><path d="M4.08 1L4.08 7.16M1 4.08L7.16 4.08" stroke="rgba(214, 31, 67, 1)" fill="none" stroke-width="1"></path></pattern><clipPath id="SvgjsClipPath1860"><circle r="20.4" cx="166.39" cy="11.91"></circle></clipPath><pattern x="0" y="0" width="11.58" height="11.58" patternUnits="userSpaceOnUse" id="SvgjsPattern1863"><path d="M5.79 1L5.79 10.58M1 5.79L10.58 5.79" stroke="rgba(214, 31, 67, 1)" fill="none" stroke-width="4.23"></path></pattern><clipPath id="SvgjsClipPath1862"><circle r="28.95" cx="143.87" cy="585.04"></circle></clipPath></defs></svg>