<svg xmlns="http://www.w3.org/2000/svg" version="1.1" xmlns:xlink="http://www.w3.org/1999/xlink" xmlns:svgjs="http://svgjs.dev/svgjs" viewBox="0 0 800 800" width="800" height="800"><g stroke-width="3.5" stroke="hsla(180, 10%, 6%, 1.00)" fill="none"><rect width="14.473684210526315" height="14.473684210526315" x="-7.2368421052631575" y="-7.2368421052631575" fill="hsla(180, 10%, 6%, 1.00)" stroke="none"></rect><rect width="14.473684210526315" height="14.473684210526315" x="126.09649122807019" y="-7.2368421052631575" fill="hsla(180, 10%, 6%, 1.00)" stroke="none"></rect><rect width="14.473684210526315" height="14.473684210526315" x="259.4298245614035" y="-7.2368421052631575" fill="hsla(180, 10%, 6%, 1.00)" stroke="none"></rect><rect width="14.473684210526315" height="14.473684210526315" x="392.7631578947368" y="-7.2368421052631575" fill="hsla(180, 10%, 6%, 1.00)" stroke="none"></rect><rect width="14.473684210526315" height="14.473684210526315" x="526.0964912280702" y="-7.2368421052631575" fill="hsla(180, 10%, 6%, 1.00)" stroke="none"></rect><rect width="14.473684210526315" height="14.473684210526315" x="659.4298245614036" y="-7.2368421052631575" fill="hsla(180, 10%, 6%, 1.00)" stroke="none"></rect><rect width="14.473684210526315" height="14.473684210526315" x="792.763157894737" y="-7.2368421052631575" fill="hsla(180, 10%, 6%, 1.00)" stroke="none"></rect><rect width="14.473684210526315" height="14.473684210526315" x="-7.2368421052631575" y="126.09649122807019" fill="hsla(180, 10%, 6%, 1.00)" stroke="none"></rect><rect width="14.473684210526315" height="14.473684210526315" x="126.09649122807019" y="126.09649122807019" fill="hsla(180, 10%, 6%, 1.00)" stroke="none"></rect><rect width="14.473684210526315" height="14.473684210526315" x="259.4298245614035" y="126.09649122807019" fill="hsla(180, 10%, 6%, 1.00)" stroke="none"></rect><rect width="14.473684210526315" height="14.473684210526315" x="392.7631578947368" y="126.09649122807019" fill="hsla(180, 10%, 6%, 1.00)" stroke="none"></rect><rect width="14.473684210526315" height="14.473684210526315" x="526.0964912280702" y="126.09649122807019" fill="hsla(180, 10%, 6%, 1.00)" stroke="none"></rect><rect width="14.473684210526315" height="14.473684210526315" x="659.4298245614036" y="126.09649122807019" fill="hsla(180, 10%, 6%, 1.00)" stroke="none"></rect><rect width="14.473684210526315" height="14.473684210526315" x="792.763157894737" y="126.09649122807019" fill="hsla(180, 10%, 6%, 1.00)" stroke="none"></rect><rect width="14.473684210526315" height="14.473684210526315" x="-7.2368421052631575" y="259.4298245614035" fill="hsla(180, 10%, 6%, 1.00)" stroke="none"></rect><rect width="14.473684210526315" height="14.473684210526315" x="126.09649122807019" y="259.4298245614035" fill="hsla(180, 10%, 6%, 1.00)" stroke="none"></rect><rect width="14.473684210526315" height="14.473684210526315" x="259.4298245614035" y="259.4298245614035" fill="hsla(180, 10%, 6%, 1.00)" stroke="none"></rect><rect width="14.473684210526315" height="14.473684210526315" x="392.7631578947368" y="259.4298245614035" fill="hsla(180, 10%, 6%, 1.00)" stroke="none"></rect><rect width="14.473684210526315" height="14.473684210526315" x="526.0964912280702" y="259.4298245614035" fill="hsla(180, 10%, 6%, 1.00)" stroke="none"></rect><rect width="14.473684210526315" height="14.473684210526315" x="659.4298245614036" y="259.4298245614035" fill="hsla(180, 10%, 6%, 1.00)" stroke="none"></rect><rect width="14.473684210526315" height="14.473684210526315" x="792.763157894737" y="259.4298245614035" fill="hsla(180, 10%, 6%, 1.00)" stroke="none"></rect><rect width="14.473684210526315" height="14.473684210526315" x="-7.2368421052631575" y="392.7631578947368" fill="hsla(180, 10%, 6%, 1.00)" stroke="none"></rect><rect width="14.473684210526315" height="14.473684210526315" x="126.09649122807019" y="392.7631578947368" fill="hsla(180, 10%, 6%, 1.00)" stroke="none"></rect><rect width="14.473684210526315" height="14.473684210526315" x="259.4298245614035" y="392.7631578947368" fill="hsla(180, 10%, 6%, 1.00)" stroke="none"></rect><rect width="14.473684210526315" height="14.473684210526315" x="392.7631578947368" y="392.7631578947368" fill="hsla(180, 10%, 6%, 1.00)" stroke="none"></rect><rect width="14.473684210526315" height="14.473684210526315" x="526.0964912280702" y="392.7631578947368" fill="hsla(180, 10%, 6%, 1.00)" stroke="none"></rect><rect width="14.473684210526315" height="14.473684210526315" x="659.4298245614036" y="392.7631578947368" fill="hsla(180, 10%, 6%, 1.00)" stroke="none"></rect><rect width="14.473684210526315" height="14.473684210526315" x="792.763157894737" y="392.7631578947368" fill="hsla(180, 10%, 6%, 1.00)" stroke="none"></rect><rect width="14.473684210526315" height="14.473684210526315" x="-7.2368421052631575" y="526.0964912280702" fill="hsla(180, 10%, 6%, 1.00)" stroke="none"></rect><rect width="14.473684210526315" height="14.473684210526315" x="126.09649122807019" y="526.0964912280702" fill="hsla(180, 10%, 6%, 1.00)" stroke="none"></rect><rect width="14.473684210526315" height="14.473684210526315" x="259.4298245614035" y="526.0964912280702" fill="hsla(180, 10%, 6%, 1.00)" stroke="none"></rect><rect width="14.473684210526315" height="14.473684210526315" x="392.7631578947368" y="526.0964912280702" fill="hsla(180, 10%, 6%, 1.00)" stroke="none"></rect><rect width="14.473684210526315" height="14.473684210526315" x="526.0964912280702" y="526.0964912280702" fill="hsla(180, 10%, 6%, 1.00)" stroke="none"></rect><rect width="14.473684210526315" height="14.473684210526315" x="659.4298245614036" y="526.0964912280702" fill="hsla(180, 10%, 6%, 1.00)" stroke="none"></rect><rect width="14.473684210526315" height="14.473684210526315" x="792.763157894737" y="526.0964912280702" fill="hsla(180, 10%, 6%, 1.00)" stroke="none"></rect><rect width="14.473684210526315" height="14.473684210526315" x="-7.2368421052631575" y="659.4298245614036" fill="hsla(180, 10%, 6%, 1.00)" stroke="none"></rect><rect width="14.473684210526315" height="14.473684210526315" x="126.09649122807019" y="659.4298245614036" fill="hsla(180, 10%, 6%, 1.00)" stroke="none"></rect><rect width="14.473684210526315" height="14.473684210526315" x="259.4298245614035" y="659.4298245614036" fill="hsla(180, 10%, 6%, 1.00)" stroke="none"></rect><rect width="14.473684210526315" height="14.473684210526315" x="392.7631578947368" y="659.4298245614036" fill="hsla(180, 10%, 6%, 1.00)" stroke="none"></rect><rect width="14.473684210526315" height="14.473684210526315" x="526.0964912280702" y="659.4298245614036" fill="hsla(180, 10%, 6%, 1.00)" stroke="none"></rect><rect width="14.473684210526315" height="14.473684210526315" x="659.4298245614036" y="659.4298245614036" fill="hsla(180, 10%, 6%, 1.00)" stroke="none"></rect><rect width="14.473684210526315" height="14.473684210526315" x="792.763157894737" y="659.4298245614036" fill="hsla(180, 10%, 6%, 1.00)" stroke="none"></rect><rect width="14.473684210526315" height="14.473684210526315" x="-7.2368421052631575" y="792.763157894737" fill="hsla(180, 10%, 6%, 1.00)" stroke="none"></rect><rect width="14.473684210526315" height="14.473684210526315" x="126.09649122807019" y="792.763157894737" fill="hsla(180, 10%, 6%, 1.00)" stroke="none"></rect><rect width="14.473684210526315" height="14.473684210526315" x="259.4298245614035" y="792.763157894737" fill="hsla(180, 10%, 6%, 1.00)" stroke="none"></rect><rect width="14.473684210526315" height="14.473684210526315" x="392.7631578947368" y="792.763157894737" fill="hsla(180, 10%, 6%, 1.00)" stroke="none"></rect><rect width="14.473684210526315" height="14.473684210526315" x="526.0964912280702" y="792.763157894737" fill="hsla(180, 10%, 6%, 1.00)" stroke="none"></rect><rect width="14.473684210526315" height="14.473684210526315" x="659.4298245614036" y="792.763157894737" fill="hsla(180, 10%, 6%, 1.00)" stroke="none"></rect><rect width="14.473684210526315" height="14.473684210526315" x="792.763157894737" y="792.763157894737" fill="hsla(180, 10%, 6%, 1.00)" stroke="none"></rect></g></svg>