<svg xmlns="http://www.w3.org/2000/svg" version="1.1" xmlns:xlink="http://www.w3.org/1999/xlink" xmlns:svgjs="http://svgjs.dev/svgjs" viewBox="0 0 800 800" width="800" height="800"><g stroke-width="5.25" stroke="hsla(0, 0%, 97%, 1.00)" fill="none"><rect width="20" height="20" x="-10" y="-10" fill="hsla(0, 0%, 97%, 1.00)" stroke="none"></rect><rect width="20" height="20" x="90" y="-10" fill="hsla(0, 0%, 97%, 1.00)" stroke="none"></rect><rect width="20" height="20" x="190" y="-10" fill="hsla(0, 0%, 97%, 1.00)" stroke="none"></rect><rect width="20" height="20" x="290" y="-10" fill="hsla(0, 0%, 97%, 1.00)" stroke="none"></rect><rect width="20" height="20" x="390" y="-10" fill="hsla(0, 0%, 97%, 1.00)" stroke="none"></rect><rect width="20" height="20" x="490" y="-10" fill="hsla(0, 0%, 97%, 1.00)" stroke="none"></rect><rect width="20" height="20" x="590" y="-10" fill="hsla(0, 0%, 97%, 1.00)" stroke="none"></rect><rect width="20" height="20" x="690" y="-10" fill="hsla(0, 0%, 97%, 1.00)" stroke="none"></rect><rect width="20" height="20" x="790" y="-10" fill="hsla(0, 0%, 97%, 1.00)" stroke="none"></rect><rect width="20" height="20" x="-10" y="104.28571428571429" fill="hsla(0, 0%, 97%, 1.00)" stroke="none"></rect><rect width="20" height="20" x="90" y="104.28571428571429" fill="hsla(0, 0%, 97%, 1.00)" stroke="none"></rect><rect width="20" height="20" x="190" y="104.28571428571429" fill="hsla(0, 0%, 97%, 1.00)" stroke="none"></rect><rect width="20" height="20" x="290" y="104.28571428571429" fill="hsla(0, 0%, 97%, 1.00)" stroke="none"></rect><rect width="20" height="20" x="390" y="104.28571428571429" fill="hsla(0, 0%, 97%, 1.00)" stroke="none"></rect><rect width="20" height="20" x="490" y="104.28571428571429" fill="hsla(0, 0%, 97%, 1.00)" stroke="none"></rect><rect width="20" height="20" x="590" y="104.28571428571429" fill="hsla(0, 0%, 97%, 1.00)" stroke="none"></rect><rect width="20" height="20" x="690" y="104.28571428571429" fill="hsla(0, 0%, 97%, 1.00)" stroke="none"></rect><rect width="20" height="20" x="790" y="104.28571428571429" fill="hsla(0, 0%, 97%, 1.00)" stroke="none"></rect><rect width="20" height="20" x="-10" y="218.57142857142858" fill="hsla(0, 0%, 97%, 1.00)" stroke="none"></rect><rect width="20" height="20" x="90" y="218.57142857142858" fill="hsla(0, 0%, 97%, 1.00)" stroke="none"></rect><rect width="20" height="20" x="190" y="218.57142857142858" fill="hsla(0, 0%, 97%, 1.00)" stroke="none"></rect><rect width="20" height="20" x="290" y="218.57142857142858" fill="hsla(0, 0%, 97%, 1.00)" stroke="none"></rect><rect width="20" height="20" x="390" y="218.57142857142858" fill="hsla(0, 0%, 97%, 1.00)" stroke="none"></rect><rect width="20" height="20" x="490" y="218.57142857142858" fill="hsla(0, 0%, 97%, 1.00)" stroke="none"></rect><rect width="20" height="20" x="590" y="218.57142857142858" fill="hsla(0, 0%, 97%, 1.00)" stroke="none"></rect><rect width="20" height="20" x="690" y="218.57142857142858" fill="hsla(0, 0%, 97%, 1.00)" stroke="none"></rect><rect width="20" height="20" x="790" y="218.57142857142858" fill="hsla(0, 0%, 97%, 1.00)" stroke="none"></rect><rect width="20" height="20" x="-10" y="332.8571428571429" fill="hsla(0, 0%, 97%, 1.00)" stroke="none"></rect><rect width="20" height="20" x="90" y="332.8571428571429" fill="hsla(0, 0%, 97%, 1.00)" stroke="none"></rect><rect width="20" height="20" x="190" y="332.8571428571429" fill="hsla(0, 0%, 97%, 1.00)" stroke="none"></rect><rect width="20" height="20" x="290" y="332.8571428571429" fill="hsla(0, 0%, 97%, 1.00)" stroke="none"></rect><rect width="20" height="20" x="390" y="332.8571428571429" fill="hsla(0, 0%, 97%, 1.00)" stroke="none"></rect><rect width="20" height="20" x="490" y="332.8571428571429" fill="hsla(0, 0%, 97%, 1.00)" stroke="none"></rect><rect width="20" height="20" x="590" y="332.8571428571429" fill="hsla(0, 0%, 97%, 1.00)" stroke="none"></rect><rect width="20" height="20" x="690" y="332.8571428571429" fill="hsla(0, 0%, 97%, 1.00)" stroke="none"></rect><rect width="20" height="20" x="790" y="332.8571428571429" fill="hsla(0, 0%, 97%, 1.00)" stroke="none"></rect><rect width="20" height="20" x="-10" y="447.14285714285717" fill="hsla(0, 0%, 97%, 1.00)" stroke="none"></rect><rect width="20" height="20" x="90" y="447.14285714285717" fill="hsla(0, 0%, 97%, 1.00)" stroke="none"></rect><rect width="20" height="20" x="190" y="447.14285714285717" fill="hsla(0, 0%, 97%, 1.00)" stroke="none"></rect><rect width="20" height="20" x="290" y="447.14285714285717" fill="hsla(0, 0%, 97%, 1.00)" stroke="none"></rect><rect width="20" height="20" x="390" y="447.14285714285717" fill="hsla(0, 0%, 97%, 1.00)" stroke="none"></rect><rect width="20" height="20" x="490" y="447.14285714285717" fill="hsla(0, 0%, 97%, 1.00)" stroke="none"></rect><rect width="20" height="20" x="590" y="447.14285714285717" fill="hsla(0, 0%, 97%, 1.00)" stroke="none"></rect><rect width="20" height="20" x="690" y="447.14285714285717" fill="hsla(0, 0%, 97%, 1.00)" stroke="none"></rect><rect width="20" height="20" x="790" y="447.14285714285717" fill="hsla(0, 0%, 97%, 1.00)" stroke="none"></rect><rect width="20" height="20" x="-10" y="561.4285714285714" fill="hsla(0, 0%, 97%, 1.00)" stroke="none"></rect><rect width="20" height="20" x="90" y="561.4285714285714" fill="hsla(0, 0%, 97%, 1.00)" stroke="none"></rect><rect width="20" height="20" x="190" y="561.4285714285714" fill="hsla(0, 0%, 97%, 1.00)" stroke="none"></rect><rect width="20" height="20" x="290" y="561.4285714285714" fill="hsla(0, 0%, 97%, 1.00)" stroke="none"></rect><rect width="20" height="20" x="390" y="561.4285714285714" fill="hsla(0, 0%, 97%, 1.00)" stroke="none"></rect><rect width="20" height="20" x="490" y="561.4285714285714" fill="hsla(0, 0%, 97%, 1.00)" stroke="none"></rect><rect width="20" height="20" x="590" y="561.4285714285714" fill="hsla(0, 0%, 97%, 1.00)" stroke="none"></rect><rect width="20" height="20" x="690" y="561.4285714285714" fill="hsla(0, 0%, 97%, 1.00)" stroke="none"></rect><rect width="20" height="20" x="790" y="561.4285714285714" fill="hsla(0, 0%, 97%, 1.00)" stroke="none"></rect><rect width="20" height="20" x="-10" y="675.7142857142858" fill="hsla(0, 0%, 97%, 1.00)" stroke="none"></rect><rect width="20" height="20" x="90" y="675.7142857142858" fill="hsla(0, 0%, 97%, 1.00)" stroke="none"></rect><rect width="20" height="20" x="190" y="675.7142857142858" fill="hsla(0, 0%, 97%, 1.00)" stroke="none"></rect><rect width="20" height="20" x="290" y="675.7142857142858" fill="hsla(0, 0%, 97%, 1.00)" stroke="none"></rect><rect width="20" height="20" x="390" y="675.7142857142858" fill="hsla(0, 0%, 97%, 1.00)" stroke="none"></rect><rect width="20" height="20" x="490" y="675.7142857142858" fill="hsla(0, 0%, 97%, 1.00)" stroke="none"></rect><rect width="20" height="20" x="590" y="675.7142857142858" fill="hsla(0, 0%, 97%, 1.00)" stroke="none"></rect><rect width="20" height="20" x="690" y="675.7142857142858" fill="hsla(0, 0%, 97%, 1.00)" stroke="none"></rect><rect width="20" height="20" x="790" y="675.7142857142858" fill="hsla(0, 0%, 97%, 1.00)" stroke="none"></rect><rect width="20" height="20" x="-10" y="790.0000000000001" fill="hsla(0, 0%, 97%, 1.00)" stroke="none"></rect><rect width="20" height="20" x="90" y="790.0000000000001" fill="hsla(0, 0%, 97%, 1.00)" stroke="none"></rect><rect width="20" height="20" x="190" y="790.0000000000001" fill="hsla(0, 0%, 97%, 1.00)" stroke="none"></rect><rect width="20" height="20" x="290" y="790.0000000000001" fill="hsla(0, 0%, 97%, 1.00)" stroke="none"></rect><rect width="20" height="20" x="390" y="790.0000000000001" fill="hsla(0, 0%, 97%, 1.00)" stroke="none"></rect><rect width="20" height="20" x="490" y="790.0000000000001" fill="hsla(0, 0%, 97%, 1.00)" stroke="none"></rect><rect width="20" height="20" x="590" y="790.0000000000001" fill="hsla(0, 0%, 97%, 1.00)" stroke="none"></rect><rect width="20" height="20" x="690" y="790.0000000000001" fill="hsla(0, 0%, 97%, 1.00)" stroke="none"></rect><rect width="20" height="20" x="790" y="790.0000000000001" fill="hsla(0, 0%, 97%, 1.00)" stroke="none"></rect></g></svg>