<svg xmlns="http://www.w3.org/2000/svg" version="1.1" xmlns:xlink="http://www.w3.org/1999/xlink" xmlns:svgjs="http://svgjs.dev/svgjs" viewBox="0 0 800 800" width="800" height="800"><g stroke-width="10" stroke="hsla(180, 10%, 6%, 1.00)" fill="none"><rect width="35" height="35" x="-17.5" y="-17.5" fill="hsla(180, 10%, 6%, 1.00)" stroke="none"></rect><rect width="35" height="35" x="249.16666666666669" y="-17.5" fill="hsla(180, 10%, 6%, 1.00)" stroke="none"></rect><rect width="35" height="35" x="515.8333333333334" y="-17.5" fill="hsla(180, 10%, 6%, 1.00)" stroke="none"></rect><rect width="35" height="35" x="782.5" y="-17.5" fill="hsla(180, 10%, 6%, 1.00)" stroke="none"></rect><rect width="35" height="35" x="-17.5" y="249.16666666666669" fill="hsla(180, 10%, 6%, 1.00)" stroke="none"></rect><rect width="35" height="35" x="249.16666666666669" y="249.16666666666669" fill="hsla(180, 10%, 6%, 1.00)" stroke="none"></rect><rect width="35" height="35" x="515.8333333333334" y="249.16666666666669" fill="hsla(180, 10%, 6%, 1.00)" stroke="none"></rect><rect width="35" height="35" x="782.5" y="249.16666666666669" fill="hsla(180, 10%, 6%, 1.00)" stroke="none"></rect><rect width="35" height="35" x="-17.5" y="515.8333333333334" fill="hsla(180, 10%, 6%, 1.00)" stroke="none"></rect><rect width="35" height="35" x="249.16666666666669" y="515.8333333333334" fill="hsla(180, 10%, 6%, 1.00)" stroke="none"></rect><rect width="35" height="35" x="515.8333333333334" y="515.8333333333334" fill="hsla(180, 10%, 6%, 1.00)" stroke="none"></rect><rect width="35" height="35" x="782.5" y="515.8333333333334" fill="hsla(180, 10%, 6%, 1.00)" stroke="none"></rect><rect width="35" height="35" x="-17.5" y="782.5" fill="hsla(180, 10%, 6%, 1.00)" stroke="none"></rect><rect width="35" height="35" x="249.16666666666669" y="782.5" fill="hsla(180, 10%, 6%, 1.00)" stroke="none"></rect><rect width="35" height="35" x="515.8333333333334" y="782.5" fill="hsla(180, 10%, 6%, 1.00)" stroke="none"></rect><rect width="35" height="35" x="782.5" y="782.5" fill="hsla(180, 10%, 6%, 1.00)" stroke="none"></rect></g></svg>